# xmcd
#
# Track frame offsets:
# 150
# 13977
# 23750
# 36824
# 45081
# 54303
# 58080
# 73578
# 87802
# 98468
# 112433
# 121772
# 132210
# 148623
# 156660
# 172544
#
# Disc length: 2432 seconds
#
#
# Revision: 0
# Processed by: cddbd v1.5.1PL0 Copyright (c) Steve Scherf et al.
# Submitted via: FreeRIP 2.92 
#
DISCID=cd097e10
DTITLE=The White Stripes - White Blood Cells
DYEAR=1900
DGENRE=Rock
TTITLE0=Dead Leaves and the Dirty Ground
TTITLE1=Hotel Yorba
TTITLE2=i'm finding it harder to be a gentleman
TTITLE3=Fell in Love with a Girl
TTITLE4=Expecting
TTITLE5=Little Room
TTITLE6=The Union Forever
TTITLE7=The Same Boy You've Always Known
TTITLE8=We're Going to be Friends
TTITLE9=Offend in Every Way
TTITLE10=i think i smell a rat
TTITLE11=Aluminum
TTITLE12=i can't wait
TTITLE13=Now Mary
TTITLE14=i can learn
TTITLE15=This Protector
EXTD=
EXTT0=
EXTT1=
EXTT2=
EXTT3=
EXTT4=
EXTT5=
EXTT6=
EXTT7=
EXTT8=
EXTT9=
EXTT10=
EXTT11=
EXTT12=
EXTT13=
EXTT14=
EXTT15=
PLAYORDER=
